<svg class="logo--desktop" xmlns="http://www.w3.org/2000/svg" viewBox="0 0 254.67 125.98"><title>Kel Tec</title><path fill="#fff" d="M273.28-138.35h33.1L302-122.6H291.69l1.55-5.49H280.65l-6,21.24h12.59l1.55-5.49h10.25L294.63-96.6h-33.1Zm14.24-14.16L296.38-184H286.12l-11.75,41.75h33.11l2.89-10.26Zm-50.15,10.26h33.1l2.89-10.26H250.52l1.54-5.49H271l2.88-10.25H255l1.54-5.49h22.85L282.23-184H249.12ZM224.52-96.6h33.11l2.88-10.25H237.67l1.54-5.49h19l2.89-10.26h-19l1.54-5.49h22.85l2.89-10.26H236.27Zm8.28-79.7-14.91,8.22L222.37-184H212.12l-11.75,41.75h10.25l3.82-13.57,5.08-2.8,6.77,5.42-3.08,10.95h10.26l4.64-16.5-7.49-6,10.87-6L245.22-184H235Zm-36.42,48.21h11.43L198.94-96.6H209.2l8.86-31.49h11.43l2.88-10.26h-33.1Z" transform="translate(-176.66 184)"/><path fill="#cf2030" d="M326.6-173.74H428.45L431.34-184H329.49Zm-5.43,19.28H423l2.89-10.25H324.06Zm-5.43,19.29H417.59l2.89-10.26H318.63Zm-5.42,19.29H412.17l2.88-10.26H313.2ZM304.89-96.6H406.74l2.89-10.25H307.78ZM182.09-77.31H401.31l2.89-10.26H185ZM176.66-58H395.88l2.89-10.26H179.55Zm234.25-7.14a4.51,4.51,0,0,0-.92-1.61,4.55,4.55,0,0,0-1.49-1.1,4.69,4.69,0,0,0-2-.41,5.35,5.35,0,0,0-2,.41,6.07,6.07,0,0,0-1.74,1.11,6,6,0,0,0-1.25,1.63,5.44,5.44,0,0,0-.61,2v0a4.82,4.82,0,0,0,.19,2,4.49,4.49,0,0,0,.91,1.61,4.78,4.78,0,0,0,1.5,1.1,4.61,4.61,0,0,0,2,.41,5.31,5.31,0,0,0,2-.41,6,6,0,0,0,1.74-1.12,6,6,0,0,0,1.26-1.62,5.3,5.3,0,0,0,.6-2v0A4.8,4.8,0,0,0,410.91-65.16Zm-.71,2v0a4.58,4.58,0,0,1-.5,1.65,5.09,5.09,0,0,1-1,1.35,4.79,4.79,0,0,1-1.42.91,4.22,4.22,0,0,1-1.69.34,3.74,3.74,0,0,1-1.63-.34,3.66,3.66,0,0,1-1.24-.91,3.6,3.6,0,0,1-.75-1.34,4.17,4.17,0,0,1-.14-1.63v0a4.52,4.52,0,0,1,.5-1.65,5.19,5.19,0,0,1,1-1.36,5.23,5.23,0,0,1,1.42-.91,4.41,4.41,0,0,1,1.7-.34,3.93,3.93,0,0,1,1.63.34,3.94,3.94,0,0,1,1.24.92,3.41,3.41,0,0,1,.74,1.33A4,4,0,0,1,410.2-63.18Zm-2.24.09a1.71,1.71,0,0,0,.52-1.11,1.34,1.34,0,0,0-.47-1.27,2.17,2.17,0,0,0-1.36-.43h-2.38l-.56,5.3h1.13l.19-1.82H406L407-60.6h1.4l-1.23-2A2.33,2.33,0,0,0,408-63.09Zm-.64-1a.77.77,0,0,1-.28.52,1.16,1.16,0,0,1-.74.22h-1.16l.15-1.46h1.17a1.13,1.13,0,0,1,.69.18A.56.56,0,0,1,407.32-64.14Z" transform="translate(-176.66 184)"/></svg>