<svg class="logo--mobile" xmlns="http://www.w3.org/2000/svg" xmlns:xlink="http://www.w3.org/1999/xlink" x="0px" y="0px" viewBox="0 0 218 41.7" style="enable-background:new 0 0 218 41.7;" xml:space="preserve"><polygon points="184.9,0 218,0 213.6,15.8 203.3,15.8 204.9,10.3 192.3,10.3 186.3,31.5 198.9,31.5 200.4,26 210.7,26 206.3,41.8 173.1,41.8 "/><polygon points="87.1,31.5 96,0 85.8,0 74,41.7 107.1,41.7 110,31.5 "/><polygon points="37,41.7 70.1,41.7 73,31.5 50.2,31.5 51.7,26 70.6,26 73.5,15.7 54.6,15.7 56.2,10.3 79,10.3 81.9,0 48.8,0 "/><polygon points="136.1,41.8 169.3,41.8 172.1,31.5 149.3,31.5 150.8,26 169.8,26 172.7,15.8 153.7,15.8 155.3,10.3 178.1,10.3 181,0 147.9,0 "/><polygon points="32.4,7.7 17.5,15.9 22,0 11.8,0 0,41.7 10.3,41.7 14.1,28.2 19.2,25.4 25.9,30.8 22.8,41.7 33.1,41.7 37.7,25.2 30.3,19.2 41.1,13.2 44.9,0 34.6,0 "/><polygon points="108,10.3 119.4,10.3 110.6,41.8 120.8,41.8 129.7,10.3 141.1,10.3 144,0 110.9,0 "/></svg>