<svg xmlns="http://www.w3.org/2000/svg" viewBox="0 0 99.84 99.84"><defs><style>.foot-twit-icon{fill:#cbc2b9}</style></defs><title>Twitter Icon</title><path class="foot-twit-icon" d="M1362.92,550.33A49.92,49.92,0,1,1,1313,500.41,49.91,49.91,0,0,1,1362.92,550.33Zm-59.06,26.33c22.14,0,34.24-18.34,34.24-34.24q0-.78,0-1.56a24.51,24.51,0,0,0,6-6.23,24.31,24.31,0,0,1-6.91,1.9,12.1,12.1,0,0,0,5.29-6.66,24,24,0,0,1-7.64,2.92A12,12,0,0,0,1314,541a12.3,12.3,0,0,0,.31,2.74,34.14,34.14,0,0,1-24.8-12.57,12.05,12.05,0,0,0,3.72,16.07,12,12,0,0,1-5.45-1.51v.16a12,12,0,0,0,9.66,11.79,11.87,11.87,0,0,1-5.44.21,12.06,12.06,0,0,0,11.24,8.36,24.17,24.17,0,0,1-14.94,5.15,24.71,24.71,0,0,1-2.87-.17,34.08,34.08,0,0,0,18.44,5.41" transform="translate(-1263.08 -500.41)"/></svg>