<svg xmlns="http://www.w3.org/2000/svg" viewBox="0 0 99.84 99.84"><defs><style>.foot-icon-insta{fill:#cbc2b9}</style></defs><title>Instagram Icon</title><path class="foot-icon-insta" d="M1453.54,532.59a10,10,0,0,0-5.71-5.71,16.63,16.63,0,0,0-5.59-1c-3.17-.15-4.12-.18-12.15-.18s-9,0-12.15.18a16.69,16.69,0,0,0-5.59,1,9.38,9.38,0,0,0-3.45,2.25,9.18,9.18,0,0,0-2.25,3.46,16.29,16.29,0,0,0-1,5.58c-.14,3.18-.17,4.13-.17,12.16s0,9,.17,12.15a16.29,16.29,0,0,0,1,5.58,9.1,9.1,0,0,0,2.25,3.46,9.26,9.26,0,0,0,3.45,2.25,16.88,16.88,0,0,0,5.59,1c3.17.14,4.12.17,12.15.17s9,0,12.15-.17a16.82,16.82,0,0,0,5.59-1,10,10,0,0,0,5.71-5.71,16.61,16.61,0,0,0,1-5.58c.15-3.17.18-4.12.18-12.15s0-9-.18-12.16A16.61,16.61,0,0,0,1453.54,532.59Zm-23.45,33.18a15.45,15.45,0,1,1,15.44-15.44A15.44,15.44,0,0,1,1430.09,565.77Zm16.06-27.89a3.61,3.61,0,1,1,3.6-3.61A3.6,3.6,0,0,1,1446.15,537.88Zm-6,12.45a10,10,0,1,1-10-10A10,10,0,0,1,1440.12,550.33Zm-10-49.92A49.92,49.92,0,1,0,1480,550.33,49.92,49.92,0,0,0,1430.09,500.41ZM1460,562.73a22.07,22.07,0,0,1-1.39,7.3,14.81,14.81,0,0,1-3.47,5.32,14.63,14.63,0,0,1-5.33,3.47,22,22,0,0,1-7.3,1.4c-3.21.15-4.23.18-12.4.18s-9.19,0-12.4-.18a22,22,0,0,1-7.3-1.4,15.34,15.34,0,0,1-8.79-8.79,21.79,21.79,0,0,1-1.4-7.3c-.15-3.21-.18-4.24-.18-12.4s0-9.2.18-12.4a21.74,21.74,0,0,1,1.4-7.3,14.61,14.61,0,0,1,3.46-5.33,14.85,14.85,0,0,1,5.33-3.47,22.25,22.25,0,0,1,7.3-1.4c3.21-.14,4.23-.18,12.4-.18s9.19,0,12.4.18a22.25,22.25,0,0,1,7.3,1.4,15.38,15.38,0,0,1,8.8,8.8,22,22,0,0,1,1.39,7.3c.15,3.2.19,4.23.19,12.4S1460.13,559.52,1460,562.73Z" transform="translate(-1380.17 -500.41)"/></svg>